<?xml version="1.0" encoding="utf-8"?>
<!-- Generator: Adobe Illustrator 24.1.0, SVG Export Plug-In . SVG Version: 6.00 Build 0)  -->
<svg version="1.1" id="Capa_1" xmlns="http://www.w3.org/2000/svg" xmlns:xlink="http://www.w3.org/1999/xlink" x="0px" y="0px"
	 viewBox="0 0 79 42" style="enable-background:new 0 0 79 42;" xml:space="preserve">
<g>
	<polygon points="58.7,12 58.6,11.9 58.6,11.9 	"/>
	<path d="M60.2,27.7c0-0.1,0-0.2-0.1-0.2c-0.3,0-0.2-0.2-0.3-0.4c0,0,0,0,0,0c-0.2-0.2-0.5-0.2-0.6-0.6c-0.6,0-0.9-0.2-0.8-0.8
		c0.1-0.5,0.1-1,0.1-1.6c0-0.1,0-0.2,0.1-0.3c0-0.6,0.1-1.1,0.2-1.7c0-0.2,0-0.4,0.1-0.5c0.1-0.8,0.3-1.6,0.3-2.4
		c0.1-1.1-0.6-1.9-1.7-2c-0.3,0-0.6,0-0.8,0c-0.2,0-0.6,0.2-0.5-0.3c0-0.1,0-0.2,0.1-0.3c0-0.1,0-0.3,0.1-0.4c0-0.1,0.1-0.2,0.1-0.3
		c0-0.1,0-0.3,0.1-0.3c0.1-0.5,0.2-1,0.2-1.5c0-0.1,0-0.2,0-0.3c-0.1-0.4-0.3-0.8-0.6-1.2c-0.1-0.1-0.2-0.1-0.3-0.2
		c-0.5,0-0.9,0.1-1.3,0.3c-0.1,0.2-0.3,0.3-0.4,0.5c-0.4,1-0.3,2.1,0,3.1c0.1,0.2,0.2,0.4,0.3,0.6c0.6,0.4,0.6,0.8,0.2,1.4
		c0,0.3-0.1,0.6-0.3,0.8c-0.1,0.5-0.3,0.9-0.5,1.3c0,0.2,0,0.4-0.2,0.5c-0.1,0.3-0.2,0.7-0.3,1c0.1,0,0.2,0,0.3,0
		c-0.1,0-0.2,0-0.3,0c-0.5,0.9-0.6,1.9-1.2,2.7c0,0.1,0,0.3-0.2,0.3c0,0.2-0.1,0.4-0.3,0.5c-0.2,0.5-0.4,0.5-0.6,0
		c-0.2-0.1-0.1-0.3-0.1-0.5c-0.2-0.3-0.2-0.7-0.1-1c-0.1-1.2-0.1-2.5,0-3.7c0-1,0-2,0-3c-0.4-0.6-0.9-1.2-1.8-0.9
		c-0.6,1.8-0.9,3.8-1.6,5.6c-0.2,0.6-0.4,1.3-0.9,1.8c-0.7,0.7-1.5,0.5-1.8-0.5c-0.3-1-0.2-2.1-0.1-3.2c0-0.4,0.1-0.9,0.1-1.3
		c-0.3-0.2-0.1-0.3,0.1-0.3c0.2-0.6,0.4-1.2,0.7-1.8c0.4-0.8,0.9-1.2,1.9-1c0.1-0.1,0.1-0.3,0.2-0.4c0-0.1,0-0.1,0-0.1
		c-0.7-0.6-1.6-0.5-2.4-0.3c-0.1,0.1-0.2,0.2-0.3,0.1c-0.3,0.2-0.7,0.5-1,0.7c-0.1,0.2-0.3,0.4-0.5,0.6c-0.1,0.1-0.1,0.2-0.2,0.3
		c-0.1,0.3-0.2,0.5-0.4,0.7c-0.1,0.3-0.2,0.6-0.3,0.8c0,0.2,0,0.4-0.2,0.5c0,0.1,0,0.2-0.1,0.3c0,0.1,0,0.3-0.1,0.3
		c-0.1,0.6-0.1,1.1-0.2,1.7c0,0.5,0,0.9,0,1.4c0.2,1.4,0.7,2.7,2.1,3.4c0.2,0,0.4,0,0.7,0c0.2-0.2,0.3-0.2,0.5,0c0.1,0,0.2,0,0.3,0
		c0.2-0.1,0.4-0.3,0.6-0.4c0-0.2,0.1-0.3,0.3-0.4c0,0,0,0,0,0c0.6-0.8,1-1.8,1.7-2.6c0,0.3,0,0.6,0.1,0.8c0.3,0.2,0.1,0.4,0.2,0.7
		c0.1,0.1,0.2,0.3,0.1,0.5c0.1,0.3,0.1,0.7,0.2,1c0.2,0.5,0.4,1,0.6,1.5c0.2,0.2,0.3,0.4,0.5,0.6c0.1,0,0.2,0.1,0.3,0.1
		c0.4,0.9-0.4,0.7-0.8,0.9c-0.4,0.3-0.8,0.5-1.2,0.6c-0.2,0.2-0.4,0.3-0.7,0.4c-0.3,0.2-0.5,0.4-0.9,0.4c-0.2,0.2-0.5,0.3-0.8,0.4
		c-1.1,0.6-2.2,1.1-3.4,1.3c-0.1,0.1-0.2,0.1-0.3,0.1c-0.2,0-0.3,0-0.5,0.1c-0.2,0.2-0.4,0.1-0.7,0.1c-1,0.1-1.9,0.1-2.9,0
		c-0.2,0-0.4,0.1-0.5-0.1c-0.4,0-0.8-0.1-1.2-0.3c-0.3,0-0.5-0.1-0.7-0.3c-0.8-0.3-1.3-0.9-1.6-1.7c-0.2-0.1-0.2-0.3-0.1-0.5
		C33.9,28.4,34,28,33.5,28c-0.1,0.1-0.2,0.2-0.3,0.3c0.1,0.3,0.1,0.6,0.2,1c0,0.1,0.1,0.2,0.1,0.3c0,0,0,0,0,0
		c0.2,0.3,0.5,0.7,0.7,1c0.5,0.4,1,0.7,1.5,1.1c0.2,0,0.5,0.1,0.6,0.3c0.1,0,0.1,0,0.2,0.1c0.1,0,0.3,0,0.4,0.1
		c0.2,0,0.3,0.1,0.5,0.1c0.1,0,0.3,0,0.3,0.1c1.4,0.1,2.8,0.1,4.2,0c0.1-0.1,0.2-0.1,0.4-0.1c0.2,0,0.3,0,0.5-0.1
		c0.1-0.1,0.2-0.1,0.3-0.1c0.7-0.2,1.3-0.5,2-0.7c0.1-0.1,0.3-0.2,0.5-0.2c0.3-0.2,0.6-0.3,1-0.5c0.3-0.2,0.6-0.4,0.9-0.5
		c0.5-0.4,1-0.7,1.6-0.9c0.3-0.3,0.6-0.4,0.9-0.5c0.3-0.2,0.6-0.3,1-0.5c0.4-0.3,0.9-0.4,1.4-0.5c0.2-0.1,0.4-0.1,0.7-0.2
		c0.1-0.1,0.2-0.1,0.3-0.1c0.2,0,0.3-0.1,0.5-0.1c0.1-0.1,0.2-0.1,0.4-0.1c0.3-0.1,0.6-0.1,1-0.2c0.6-0.1,1.1,0,1.2,0.8
		c0.1,0.7,0.6,1.2,1,1.7c0.1,0,0.3,0.1,0.3,0.2c0.6,0.3,1.2,0.3,1.8,0.2c0.1-0.1,0.2-0.2,0.3-0.2C60.6,29.1,60.7,28.7,60.2,27.7
		C60.2,27.7,60.2,27.7,60.2,27.7z M54.7,14.6c0-0.1,0-0.3,0.1-0.5c0.1-0.5,0.4-1.1,1-1c0.6,0.1,0.6,0.7,0.5,1.2
		c-0.1,0.8-0.3,1.5-0.6,2.2c-0.1,0.3-0.3,0.4-0.5,0C54.8,15.9,54.7,15.3,54.7,14.6z M56.6,18.6c-0.5,2.3-0.8,4.6-0.6,7
		c0.1,0.6,0,1-0.8,1c-0.9,0-1.8,0.2-2.7,0.5c-0.3,0.1-0.6,0.2-0.9-0.1c1.3-1.4,1.8-3.3,2.5-5.1h0c0.5-1.2,1-2.4,1.4-3.7
		c0.2-0.5,0.5-0.6,0.9-0.5C57,18,56.7,18.3,56.6,18.6z M59.9,28.8c-0.1,0.5-0.4,0.3-0.5,0.1c-0.4-0.5-0.8-1-0.9-1.6
		C59.2,27.1,60,28,59.9,28.8z"/>
	<path d="M33.5,29.7C33.5,29.7,33.5,29.6,33.5,29.7C33.5,29.6,33.5,29.6,33.5,29.7L33.5,29.7z"/>
	<path d="M15.5,17c0-0.5-0.1-0.8-0.7-0.8c-0.6,0-0.7,0.2-0.7,0.7c0,1.5,0,3,0,4.4c-0.1,0-0.1,0-0.2,0.1c-0.1-0.2-0.3-0.3-0.4-0.5
		c-1-1.4-2.1-2.8-3.1-4.2c-0.4-0.6-0.9-0.6-1.5-0.5c-0.6,0.1-0.3,0.6-0.3,1c0,2,0,4.1,0,6.1c0,0.5,0.1,0.6,0.6,0.7
		c0.7,0,0.9-0.2,0.8-0.8c-0.1-1.4,0-2.9,0-4.5c0.3,0.3,0.4,0.5,0.5,0.6c1.1,1.4,2.2,2.9,3.2,4.3c0.4,0.6,1,0.4,1.4,0.4
		c0.4-0.1,0.2-0.6,0.2-0.9C15.5,21.1,15.4,19,15.5,17z"/>
	<path d="M28.1,16.2c-2.4,0-4.1,1.7-4.1,3.9c0,2.3,1.8,4,4.1,3.9c2.3,0,4.1-1.7,4.1-4C32.3,17.9,30.5,16.2,28.1,16.2z M30.9,20.2
		c0,1.5-1.3,2.7-2.8,2.7c-1.5,0-2.7-1.3-2.7-2.8c0-1.5,1.3-2.7,2.8-2.7C29.7,17.5,30.9,18.7,30.9,20.2z"/>
	<path d="M6.6,22.8c-0.8,0-1.7,0-2.5,0c-1.4,0-1.3,0-1.3-1.4c0-0.5,0.1-0.7,0.7-0.7c0.8,0,1.7,0,2.5,0c0.5,0,0.6-0.1,0.6-0.6
		c0-0.4-0.1-0.7-0.6-0.6c-0.8,0-1.7,0-2.5,0c-0.5,0-0.7-0.1-0.7-0.7c0-0.2,0-0.5,0-0.8c-0.1-0.5,0.2-0.7,0.7-0.6c1,0,2,0,3,0
		C7,17.5,7,17.2,7,16.9c0-0.4,0-0.6-0.5-0.6c-1.5,0-3,0-4.5,0c-0.4,0-0.6,0.1-0.6,0.6c0,1.1,0,2.2,0,3.3c0,1.1,0,2.2,0,3.4
		c0,0.4,0.1,0.6,0.6,0.6c1.6,0,3.1,0,4.7,0c0.5,0,0.5-0.2,0.5-0.6C7.2,23,7.1,22.8,6.6,22.8z"/>
	<path d="M35.4,23.5c1.5,0.9,3.1,0.8,4.6-0.2c0.6-0.4,0.5-0.7,0.1-1.1c-0.4-0.4-0.6,0-0.8,0.1c-1.1,0.6-2.1,0.7-3.2,0
		c-0.9-0.6-1.3-1.6-1.1-2.7c0.4-2,2.6-2.8,4.4-1.5c0.5,0.4,0.6,0.1,0.9-0.2c0.4-0.4,0.2-0.6-0.1-0.9c-0.8-0.5-1.6-0.8-2.5-0.8
		c-0.5,0-1,0.1-1.5,0.2c-1.6,0.6-2.5,1.7-2.6,3.4C33.4,21.4,34,22.7,35.4,23.5z"/>
	<path d="M22.1,16.2c-1.4,0-2.7,0-4.1,0c-0.5,0-0.6,0.2-0.6,0.6c0,1.1,0,2.2,0,3.3c0,1.1,0,2.1,0,3.2c0,0.6,0.1,0.8,0.7,0.8
		c0.7,0,0.7-0.3,0.7-0.8c0-0.6,0-1.2,0-1.8c0-0.5,0.2-0.6,0.6-0.6c0.7,0,1.5,0,2.2,0c0.5,0,0.7,0,0.7-0.6c0-0.6-0.2-0.7-0.7-0.6
		c-0.4,0-0.9,0-1.3,0c-1.5,0-1.5,0-1.5-1.5c0-0.5,0.2-0.7,0.7-0.7c0.9,0,1.7,0,2.6,0c0.5,0,0.6-0.1,0.6-0.6
		C22.7,16.4,22.6,16.2,22.1,16.2z"/>
	<path d="M77,20.7c-0.4-0.1-0.4,0.2-0.5,0.4c-0.5,1.1-1.2,2.2-1.9,3.1c-0.4,0.3-0.8,0.8-1.3,1c-0.1,0-0.3,0-0.4,0.1
		c-0.7,0-1.2-0.3-1.6-0.9c-0.4-0.5-0.6-1.1-0.9-1.7c-0.2-0.1-0.3-0.2-0.1-0.3c0-0.3-0.1-0.7-0.1-1c-0.1-0.8,0-1.4,1-1.5l-0.1,0
		c0.1-0.1,0.2-0.2,0.4-0.1c0.3,0,0.6-0.1,0.9-0.3c0.2,0,0.4-0.1,0.6-0.3l0,0c0.2-0.1,0.4-0.2,0.6-0.4c0.1-0.2,0.2-0.4,0.5-0.4
		c0.3-0.1,0.4-0.3,0.5-0.6c0.2-0.1,0.2-0.2,0.2-0.4c0.2-0.4,0.2-0.9,0-1.3c-0.4-0.6-0.9-1.1-1.6-1.2c-0.5-0.2-1-0.2-1.5,0
		c-0.1,0-0.2,0.1-0.3,0.1c-0.2,0.3-0.5,0.4-0.8,0.4c-0.6,0.2-1,0.6-1.3,1.1c0,0.2,0,0.4-0.3,0.4c-0.2,0.2-0.4,0.4-0.4,0.7
		c0.1,0.4,0,0.7-0.4,0.8c-0.1,0.2-0.2,0.4-0.2,0.7c0.2,0.2,0.1,0.3-0.1,0.3c-0.1,0.2-0.1,0.3-0.1,0.5c0.2,1,0.4,1.9-0.1,2.9
		c-0.4,0.6-0.4,1.3-0.9,1.9c0.2,0.3,0,0.3-0.2,0.3c-0.5,0.6-0.7,1.5-1.7,1.5c-0.2,0-0.3-0.1-0.3-0.3c-0.2-0.2-0.4-0.5-0.5-0.7
		c-0.4-0.2-0.5-0.6-0.3-1c-0.1-0.3-0.1-0.7-0.2-1c-0.5-0.3-0.3-0.6-0.1-1c0-1.9,0-3.7,0.1-5.6c-0.2-0.2-0.1-0.5,0-0.7
		c0-0.5,0.1-0.9,0.1-1.4c-0.2-0.2-0.1-0.4,0.1-0.5c0-0.3,0.1-0.5,0.1-0.8c-0.2-0.3-0.2-0.5,0.1-0.7c0-0.2,0.1-0.4,0.1-0.6
		c0-0.1,0-0.2,0.1-0.3c0.1,0,0.2,0,0.2,0.2c0.8,0.3,1.6,0.4,2.3-0.1c0-0.2,0-0.3,0-0.5c-0.7,0.3-1.4,0.1-2.2,0
		c-0.3,0.1-0.3,0-0.3-0.3c-0.1-0.4,0-0.8,0.1-1.2c0.1-0.8,0.1-1.6-0.6-2.1c-0.1,0-0.3,0-0.3-0.2c-0.4,0-0.9-0.2-1.2,0.3
		c0,0.2,0,0.4-0.2,0.5c-0.1,0.6-0.2,1.2-0.3,1.9c-0.3,0.6-0.7,0.4-1.1,0.1c-0.3,0.2-0.6,0.1-0.9,0.1c-0.2,0.3-0.4,0.2-0.7,0.1
		c-1.3,0.8-1.5,1.2-1.4,2.4c0.2,0,0.3,0,0.5,0c0-0.3,0.1-0.5,0.1-0.8c0-0.2-0.1-0.5,0.2-0.6c0,0,0,0,0,0c0.1-0.3,0.3-0.5,0.6-0.4
		c0.6-0.3,1.2-0.2,1.8-0.2c0.6,0,0.9,0.3,0.7,1c0,0.2,0,0.4-0.1,0.5c0,0.2,0,0.5-0.1,0.7c0.1,0.2,0,0.3-0.1,0.5c0,0.1,0,0.2,0,0.3
		c0,0.3,0,0.6-0.1,0.8c0,0.3,0,0.6-0.1,0.8c0,0.3,0,0.7-0.1,1c0,0.8-0.1,1.6-0.1,2.4c0,0.9,0,1.8,0,2.7c0.1,0.4,0.1,0.8,0.2,1.2
		c0.2,0.1,0.3,0.2,0.1,0.3c0,0.2,0,0.3,0,0.5l0.1,0c0.2,0.1,0.4,0.1,0.1,0.4c0,0.2,0,0.3,0,0.5c0,0,0.1,0,0.1,0
		c0.3,0.1,0.3,0.4,0.2,0.6c0,0.1,0.1,0.2,0.1,0.3c0.3,0,0.3,0.3,0.3,0.5c0.2,0.6,0.6,1,1.2,1.2c0.2,0,0.4,0,0.5,0.2
		c0.1,0,0.2,0,0.3,0.1c0.5-0.2,1.1-0.1,1.6-0.3c0.2,0,0.3-0.2,0.4-0.3c0.8-1,1.3-2.1,1.9-3.2c0-0.2-0.1-0.4,0.2-0.4
		c0.2,0,0.2,0.2,0.2,0.4c0.2,0.7,0.7,1.4,1.3,1.8c0.5,0.1,0.9,0.2,1.2,0.6c0.6,0.1,1.1,0.2,1.7,0c0.2,0,0.4-0.1,0.6-0.2
		c0.7-0.5,1.6-0.8,2-1.7c0.3-0.2,0.5-0.5,0.6-0.8c0.2-0.1,0.2-0.2,0.3-0.4c0.4-0.6,0.7-1.2,0.9-1.9C77.2,21,77.6,20.8,77,20.7z
		 M70.6,19c0.5-0.9,1-1.9,1.8-2.7c0.6-0.6,1.3-0.6,2-0.1c0.4,0.9,0,1.5-0.7,2.1c-0.3,0.2-0.6,0.4-0.9,0.6c0,0.1,0,0.2,0.1,0.2
		c0-0.1-0.1-0.1-0.1-0.2c-0.2,0-0.3,0.1-0.3,0.2c-0.5,0.2-1,0.3-1.5,0.5c0,0,0,0.1,0,0.1c0,0,0,0,0,0.1c0,0,0,0,0-0.1
		c0,0,0-0.1,0-0.1C70.6,19.5,70.3,19.5,70.6,19z"/>
</g>
</svg>
